<svg width="39" height="36" viewBox="0 0 39 36" fill="none" xmlns="http://www.w3.org/2000/svg">
<path d="M37.9047 4.87793L29.6415 11.5072C29.7979 12.5028 29.4238 13.5504 28.5854 14.223L20.8195 20.4533L22.1081 21.288L26.087 18.0959C26.7122 17.5943 27.6342 17.6954 28.1358 18.3207L29.0478 19.4575C29.5494 20.0827 29.4483 21.0047 28.823 21.5063L22.8192 26.323C22.329 26.7163 21.6448 26.7514 21.1251 26.4092L16.8407 23.6454L14.9436 25.1673L17.6797 28.5777C18.1813 29.203 18.0801 30.125 17.4549 30.6266L16.3181 31.5386C15.6928 32.0402 14.7709 31.9391 14.2692 31.3138L11.7612 28.1876L6.52841 35.0716C5.959 35.8321 4.82379 35.8436 4.23098 35.1046L0.83938 30.8771C0.337766 30.2519 0.43892 29.3299 1.06417 28.8283L7.88505 23.3561L6.97303 22.2193C5.9641 20.9617 6.165 19.1306 7.42261 18.1216L17.6539 9.91339C18.9115 8.90446 20.7427 9.10536 21.7516 10.363L24.0252 8.53891C24.8636 7.86629 25.9674 7.7282 26.9054 8.09678L34.0318 2.37952C33.5302 1.75427 33.6285 0.834569 34.2566 0.330675C34.8844 -0.172992 35.8038 -0.0697845 36.3054 0.555463L38.1295 2.82909C38.6311 3.45434 38.5325 4.37427 37.9047 4.87793Z" fill="url(#paint0_linear_749_661)"/>
<defs>
<linearGradient id="paint0_linear_749_661" x1="44.5471" y1="-1.38532" x2="-6.38223" y2="39.4735" gradientUnits="userSpaceOnUse">
<stop stop-color="#FF3AC8"/>
<stop offset="1" stop-color="#F81212"/>
</linearGradient>
</defs>
</svg>
