<svg width="51" height="43" viewBox="0 0 51 43" fill="none" xmlns="http://www.w3.org/2000/svg">
<path d="M40.4543 42.8468C38.4357 42.8468 36.4624 42.2483 34.784 41.1268C33.1056 40.0053 31.7975 38.4113 31.025 36.5463C30.2525 34.6814 30.0504 32.6292 30.4442 30.6494C30.838 28.6696 31.81 26.851 33.2374 25.4236C34.6648 23.9963 36.4834 23.0242 38.4632 22.6304C40.443 22.2366 42.4952 22.4387 44.3601 23.2112C46.2251 23.9837 47.8191 25.2918 48.9406 26.9703C50.062 28.6487 50.6606 30.6219 50.6606 32.6406C50.6577 35.3465 49.5814 37.9408 47.668 39.8543C45.7546 41.7677 43.1603 42.8439 40.4543 42.8468ZM40.4543 25.9843C39.1379 25.9843 37.8509 26.3747 36.7563 27.1061C35.6617 27.8375 34.8085 28.877 34.3047 30.0933C33.8009 31.3096 33.6691 32.6479 33.926 33.9391C34.1828 35.2303 34.8167 36.4164 35.7476 37.3473C36.6785 38.2782 37.8646 38.9121 39.1558 39.1689C40.447 39.4258 41.7853 39.294 43.0016 38.7902C44.2179 38.2864 45.2574 37.4332 45.9888 36.3386C46.7202 35.244 47.1106 33.957 47.1106 32.6406C47.1086 30.8758 46.4066 29.184 45.1588 27.9361C43.9109 26.6883 42.2191 25.9863 40.4543 25.9843ZM11.1667 42.8468C9.14813 42.8468 7.17485 42.2483 5.49643 41.1268C3.81802 40.0053 2.50985 38.4113 1.73736 36.5463C0.964871 34.6814 0.762753 32.6292 1.15656 30.6494C1.55038 28.6696 2.52243 26.851 3.94981 25.4236C5.37718 23.9963 7.19577 23.0242 9.17559 22.6304C11.1554 22.2366 13.2076 22.4387 15.0725 23.2112C16.9375 23.9837 18.5315 25.2918 19.653 26.9703C20.7744 28.6487 21.373 30.6219 21.373 32.6406C21.3701 35.3465 20.2938 37.9408 18.3804 39.8543C16.467 41.7677 13.8727 42.8439 11.1667 42.8468ZM11.1667 25.9843C9.85025 25.9843 8.56333 26.3747 7.46871 27.1061C6.37409 27.8375 5.52094 28.877 5.01715 30.0933C4.51335 31.3096 4.38153 32.6479 4.63837 33.9391C4.8952 35.2303 5.52915 36.4164 6.46004 37.3473C7.39094 38.2782 8.57697 38.9121 9.86817 39.1689C11.1594 39.4258 12.4977 39.294 13.714 38.7902C14.9303 38.2864 15.9698 37.4332 16.7012 36.3386C17.4326 35.244 17.823 33.957 17.823 32.6406C17.821 30.8758 17.119 29.184 15.8712 27.9361C14.6233 26.6883 12.9315 25.9863 11.1667 25.9843ZM32.9106 7.34672C33.3782 7.34834 33.8414 7.25726 34.2736 7.07873C34.7057 6.90021 35.0982 6.63778 35.4284 6.30663C35.7585 5.97548 36.0197 5.58218 36.1968 5.14946C36.374 4.71674 36.4637 4.25319 36.4606 3.78561C36.4658 3.32037 36.3781 2.85877 36.2028 2.4278C36.0275 1.99683 35.768 1.60513 35.4395 1.27562C35.111 0.946113 34.7202 0.685401 34.2897 0.508731C33.8593 0.33206 33.398 0.242978 32.9328 0.246694C32.4666 0.245237 32.0046 0.335618 31.5734 0.512676C31.1421 0.689735 30.7499 0.950005 30.4193 1.27862C30.0886 1.60724 29.8259 1.99778 29.6461 2.42793C29.4664 2.85808 29.3731 3.31942 29.3716 3.78561C29.3702 4.25181 29.4606 4.71372 29.6376 5.14499C29.8147 5.57625 30.075 5.96842 30.4036 6.2991C30.7322 6.62978 31.1227 6.89249 31.5529 7.07225C31.983 7.252 32.4444 7.34526 32.9106 7.34672Z" fill="url(#paint0_linear_749_637)"/>
<path d="M38.1857 14.4467H33.331C33.2514 14.4467 33.1732 14.4253 33.1047 14.3847C33.0362 14.3441 32.9799 14.2858 32.9416 14.2159L29.4205 7.76267C29.1724 7.2831 28.8148 6.86869 28.3768 6.55297C27.9388 6.23726 27.4326 6.02912 26.8992 5.9454C26.3658 5.86168 25.8201 5.90474 25.3064 6.07109C24.7927 6.23743 24.3255 6.52239 23.9424 6.90291L16.1922 14.7129C15.5411 15.3775 15.1716 16.2676 15.1605 17.1979C15.1605 19.1283 16.5583 19.8161 17.2129 20.2044C20.3746 22.026 22.6011 23.3583 23.8226 24.0983C23.8875 24.1378 23.9412 24.1934 23.9785 24.2596C24.0158 24.3258 24.0354 24.4006 24.0356 24.4766V32.1446C24.0356 33.0998 24.77 33.9196 25.7251 33.9673C25.9649 33.9789 26.2046 33.9417 26.4296 33.8579C26.6546 33.7742 26.8603 33.6457 27.0342 33.4802C27.2082 33.3146 27.3467 33.1156 27.4415 32.895C27.5362 32.6744 27.5852 32.4368 27.5856 32.1967V22.6561C27.5857 22.3743 27.5188 22.0965 27.3903 21.8458C27.2618 21.595 27.0755 21.3784 26.8467 21.2139L22.742 18.2618C22.6905 18.225 22.6475 18.1775 22.6158 18.1226C22.5842 18.0677 22.5646 18.0067 22.5585 17.9436C22.5525 17.8806 22.5599 17.817 22.5805 17.757C22.601 17.6971 22.6342 17.6423 22.6777 17.5962L27.3371 12.6273C27.3848 12.5762 27.444 12.5371 27.5098 12.5132C27.5756 12.4893 27.646 12.4813 27.7155 12.4899C27.7849 12.4984 27.8514 12.5232 27.9094 12.5624C27.9674 12.6015 28.0153 12.6538 28.0493 12.7149L30.47 17.0837C30.6238 17.3606 30.849 17.5913 31.1221 17.7519C31.3952 17.9124 31.7063 17.997 32.0231 17.9967H38.2356C38.4761 17.997 38.7141 17.9484 38.9352 17.8539C39.1563 17.7594 39.3559 17.621 39.5219 17.447C39.6879 17.273 39.8168 17.0671 39.9008 16.8418C39.9848 16.6165 40.0222 16.3764 40.0106 16.1363C39.964 15.1811 39.1409 14.4467 38.1857 14.4467Z" fill="url(#paint1_linear_749_637)"/>
<defs>
<linearGradient id="paint0_linear_749_637" x1="25.8105" y1="-6.73476" x2="25.8105" y2="52.9057" gradientUnits="userSpaceOnUse">
<stop stop-color="#FF3AC8"/>
<stop offset="1" stop-color="#F81212"/>
</linearGradient>
<linearGradient id="paint1_linear_749_637" x1="27.5866" y1="1.30442" x2="27.5866" y2="40.5963" gradientUnits="userSpaceOnUse">
<stop stop-color="#FF3AC8"/>
<stop offset="1" stop-color="#F81212"/>
</linearGradient>
</defs>
</svg>
