<svg width="37" height="39" viewBox="0 0 37 39" fill="none" xmlns="http://www.w3.org/2000/svg">
<path fill-rule="evenodd" clip-rule="evenodd" d="M15.164 0.640623C15.9665 0.394285 16.8141 0.343326 17.6393 0.491814C18.4645 0.640302 19.2443 0.984124 19.9166 1.49584C20.5888 2.00755 21.1348 2.67298 21.511 3.43901C21.8872 4.20504 22.0832 5.05047 22.0834 5.90779V32.7185C22.0832 33.5758 21.8872 34.4212 21.511 35.1872C21.1348 35.9533 20.5888 36.6187 19.9166 37.1304C19.2443 37.6421 18.4645 37.9859 17.6393 38.1344C16.8141 38.2829 15.9665 38.232 15.164 37.9856L4.41396 34.6856C3.30689 34.3458 2.33636 33.6499 1.64634 32.7011C0.956316 31.7523 0.583564 30.6011 0.583374 29.4185V9.20779C0.583564 8.0251 0.956316 6.87398 1.64634 5.92518C2.33636 4.97638 3.30689 4.28045 4.41396 3.94062L15.164 0.640623ZM23.875 4.64646C23.875 4.16023 24.0638 3.69391 24.3998 3.35009C24.7358 3.00628 25.1915 2.81312 25.6667 2.81312H31.0417C32.4672 2.81312 33.8344 3.39259 34.8424 4.42404C35.8504 5.45549 36.4167 6.85443 36.4167 8.31312V10.1465C36.4167 10.6327 36.2279 11.099 35.8919 11.4428C35.5559 11.7866 35.1002 11.9798 34.625 11.9798C34.1499 11.9798 33.6941 11.7866 33.3581 11.4428C33.0221 11.099 32.8334 10.6327 32.8334 10.1465V8.31312C32.8334 7.82689 32.6446 7.36058 32.3086 7.01676C31.9726 6.67294 31.5169 6.47979 31.0417 6.47979H25.6667C25.1915 6.47979 24.7358 6.28664 24.3998 5.94282C24.0638 5.599 23.875 5.13269 23.875 4.64646ZM34.625 26.6465C35.1002 26.6465 35.5559 26.8396 35.8919 27.1834C36.2279 27.5272 36.4167 27.9936 36.4167 28.4798V30.3131C36.4167 31.7718 35.8504 33.1708 34.8424 34.2022C33.8344 35.2337 32.4672 35.8131 31.0417 35.8131H25.6667C25.1915 35.8131 24.7358 35.62 24.3998 35.2762C24.0638 34.9323 23.875 34.466 23.875 33.9798C23.875 33.4936 24.0638 33.0272 24.3998 32.6834C24.7358 32.3396 25.1915 32.1465 25.6667 32.1465H31.0417C31.5169 32.1465 31.9726 31.9533 32.3086 31.6095C32.6446 31.2657 32.8334 30.7994 32.8334 30.3131V28.4798C32.8334 27.9936 33.0221 27.5272 33.3581 27.1834C33.6941 26.8396 34.1499 26.6465 34.625 26.6465ZM13.125 17.4798C12.6499 17.4798 12.1941 17.6729 11.8581 18.0168C11.5221 18.3606 11.3334 18.8269 11.3334 19.3131C11.3334 19.7994 11.5221 20.2657 11.8581 20.6095C12.1941 20.9533 12.6499 21.1465 13.125 21.1465H13.1268C13.602 21.1465 14.0577 20.9533 14.3937 20.6095C14.7297 20.2657 14.9185 19.7994 14.9185 19.3131C14.9185 18.8269 14.7297 18.3606 14.3937 18.0168C14.0577 17.6729 13.602 17.4798 13.1268 17.4798H13.125Z" fill="#E54545"/>
<path d="M34.6251 19.3132L31.0417 22.9798M25.6667 19.3132H34.6251H25.6667ZM34.6251 19.3132L31.0417 15.6465L34.6251 19.3132Z" stroke="#E54545" stroke-width="2" stroke-linecap="round" stroke-linejoin="round"/>
</svg>
