<svg width="37" height="36" viewBox="0 0 37 36" fill="none" xmlns="http://www.w3.org/2000/svg">
<path d="M17.5637 13.5533C19.324 13.5533 21.0151 14.0453 22.4705 14.9324V35.7311H9.16382V23.6511L5.45181 29.9302C4.6735 31.2539 2.97344 31.6906 1.65524 30.9074C0.337049 30.1312 -0.10027 28.4332 0.678725 27.1164L5.95496 18.1829C7.65295 15.3136 10.7371 13.5533 14.0707 13.5533H17.5637ZM21.3616 5.79103C21.3616 8.85434 18.8805 11.3355 15.8172 11.3355C12.7538 11.3355 10.2727 8.85434 10.2727 5.79103C10.2727 2.72911 12.7538 0.246582 15.8172 0.246582C18.8805 0.246582 21.3616 2.72911 21.3616 5.79103ZM31.3416 1.35547V9.41572C32.007 9.7969 32.4505 10.5177 32.4505 11.3355V18.9106L33.5594 18.5433V14.6622C33.5594 14.0523 34.0584 13.5533 34.6683 13.5533H35.7772C36.3871 13.5533 36.8861 14.0523 36.8861 14.6622V20.5185C36.8861 20.9967 36.5811 21.4195 36.1306 21.565L32.4505 22.7917V24.6422H35.7772C36.3871 24.6422 36.8861 25.1412 36.8861 25.7511V26.8599C36.8861 27.4698 36.3871 27.9688 35.7772 27.9688H32.7277L34.3218 34.3519C34.502 35.0519 33.9683 35.7311 33.2475 35.7311H29.1238C28.514 35.7311 28.015 35.2321 28.015 34.6222V27.9688H26.9061C25.6794 27.9688 24.6883 26.9778 24.6883 25.7511V15.771C24.6883 14.5443 25.6794 13.5533 26.9061 13.5533V11.3355C26.9061 10.5177 27.3496 9.7969 28.015 9.41572V2.46436C27.4051 2.46436 26.9061 1.96813 26.9061 1.35547C26.9061 0.743088 27.4051 0.246582 28.015 0.246582H30.2327C30.8426 0.246582 31.3416 0.743088 31.3416 1.35547Z" fill="url(#paint0_linear_749_660)"/>
<defs>
<linearGradient id="paint0_linear_749_660" x1="18.5894" y1="-5.56863" x2="18.5894" y2="44.1097" gradientUnits="userSpaceOnUse">
<stop stop-color="#FF3AC8"/>
<stop offset="1" stop-color="#F81212"/>
</linearGradient>
</defs>
</svg>
