<svg width="38" height="34" viewBox="0 0 38 34" fill="none" xmlns="http://www.w3.org/2000/svg">
<path d="M37.0632 21.8132C36.2179 20.6657 34.6058 20.4176 33.4596 21.2675L25.7472 26.9484H17.9768C17.4132 26.9484 17.0039 26.4813 17.0039 25.9181C17.0039 25.3544 17.471 24.8873 17.9768 24.8873H23.0185C23.9914 24.8873 24.9998 24.1862 25.1686 23.1721C25.378 21.8835 24.3877 20.7637 23.1313 20.7637H12.7663C11.0846 20.7637 9.34369 21.3596 7.99064 22.455L4.99459 24.8866L1.4264 24.8286C0.920681 24.8286 0.453491 25.3569 0.453491 25.9174V32.1015C0.453491 32.6698 0.920681 33.1337 1.4264 33.1337H23.726C25.1454 33.1337 26.5558 32.6706 27.7014 31.8277L36.406 25.4155C37.6624 24.5708 37.9073 22.9601 37.0632 21.8132ZM10.7625 11.4849H14.886V15.6085C14.886 16.1755 15.3499 16.6394 15.9169 16.6394H20.0405C20.6075 16.6394 21.0714 16.1755 21.0714 15.6085V11.4849H25.195C25.7643 11.4849 26.2259 11.0233 26.2259 10.454V6.3304C26.2259 5.76096 25.7643 5.2995 25.195 5.2995H21.0714V1.17592C21.0714 0.606475 20.6075 0.14502 20.0405 0.14502H15.9169C15.3499 0.14502 14.886 0.606475 14.886 1.17592V5.2995H10.7625C10.1955 5.2995 9.73156 5.76083 9.73156 6.3304V10.454C9.73156 11.021 10.1955 11.4849 10.7625 11.4849Z" fill="url(#paint0_linear_749_662)"/>
<defs>
<linearGradient id="paint0_linear_749_662" x1="19.006" y1="-5.26118" x2="19.006" y2="40.9231" gradientUnits="userSpaceOnUse">
<stop stop-color="#FF3AC8"/>
<stop offset="1" stop-color="#F81212"/>
</linearGradient>
</defs>
</svg>
