<svg width="39" height="37" viewBox="0 0 39 37" fill="none" xmlns="http://www.w3.org/2000/svg">
<path d="M19.5722 12.4605C22.765 12.4605 25.3553 9.86811 25.3553 6.67598C25.3553 5.91657 25.2057 5.16459 24.9151 4.46298C24.6245 3.76138 24.1985 3.1239 23.6614 2.58694C23.1244 2.04999 22.4869 1.62407 21.7852 1.33352C21.0836 1.04296 20.3316 0.893464 19.5722 0.893555C18.8128 0.893464 18.0608 1.04296 17.3591 1.33352C16.6575 1.62407 16.02 2.04999 15.483 2.58694C14.9459 3.1239 14.5199 3.76138 14.2293 4.46298C13.9387 5.16459 13.7891 5.91657 13.7891 6.67598C13.7891 9.86741 16.3794 12.4605 19.5722 12.4605ZM10.5137 36.3876V31.2555L5.36711 32.6879C4.98006 32.8426 4.5671 32.9221 4.1503 32.9223C3.55226 32.9218 2.9656 32.7587 2.4531 32.4505C1.9406 32.1423 1.52154 31.7005 1.24078 31.1724C0.960024 30.6444 0.828122 30.0499 0.859191 29.4527C0.89026 28.8555 1.08313 28.2779 1.41717 27.7819L9.67273 16.4617C10.5692 15.2345 11.8207 13.8666 14.4602 13.8666H24.4408C27.079 13.8666 28.3318 15.2345 29.2269 16.4617L37.4825 27.7819C37.8162 28.2779 38.0089 28.8553 38.0399 29.4523C38.0709 30.0493 37.939 30.6435 37.6585 31.1715C37.3779 31.6994 36.9592 32.1411 36.4471 32.4495C35.9349 32.7579 35.3486 32.9213 34.7507 32.9223C34.3339 32.9222 33.9209 32.8427 33.5339 32.6879L28.3859 31.2555V36.3876H10.5137ZM19.4502 32.8023L26.1194 30.5954L25.9689 30.5538C21.3679 29.1997 23.1595 23.1206 27.7598 24.4781L28.3887 24.6896V17.8241L19.4502 20.7445L10.5124 17.8241V24.6896L11.1378 24.4781C15.7415 23.1206 17.5331 29.1997 12.9293 30.5538L12.7817 30.5954L19.4502 32.8023Z" fill="url(#paint0_linear_749_663)"/>
<defs>
<linearGradient id="paint0_linear_749_663" x1="19.4495" y1="-4.92321" x2="19.4495" y2="44.7685" gradientUnits="userSpaceOnUse">
<stop stop-color="#FF3AC8"/>
<stop offset="1" stop-color="#F81212"/>
</linearGradient>
</defs>
</svg>
