<svg width="31" height="40" viewBox="0 0 31 40" fill="none" xmlns="http://www.w3.org/2000/svg">
<path d="M21.9969 9.07662C23.1678 9.07662 24.2908 8.61147 25.1188 7.78349C25.9467 6.95552 26.4119 5.83254 26.4119 4.6616C26.4119 3.49067 25.9467 2.36769 25.1188 1.53971C24.2908 0.711735 23.1678 0.246582 21.9969 0.246582C20.8259 0.246582 19.703 0.711735 18.875 1.53971C18.047 2.36769 17.5818 3.49067 17.5818 4.6616C17.5818 5.83254 18.047 6.95552 18.875 7.78349C19.703 8.61147 20.8259 9.07662 21.9969 9.07662ZM13.1276 13.2778C11.9041 13.5819 11.0692 14.0391 10.3952 14.6062C9.38462 15.4578 8.56834 16.6862 7.46556 18.617C7.20731 19.0688 6.78013 19.3996 6.27801 19.5365C5.77589 19.6734 5.23995 19.6052 4.7881 19.3469C4.33625 19.0887 4.00549 18.6615 3.8686 18.1594C3.73171 17.6573 3.79989 17.1213 4.05815 16.6695C5.15602 14.7494 6.26566 12.953 7.86782 11.605C9.53964 10.1961 11.5862 9.39941 14.3461 9.09232C15.4999 8.96477 16.7695 8.99028 17.9596 9.52107C19.2085 10.0793 20.121 11.0791 20.743 12.4154C21.5809 14.2137 22.2039 15.2841 22.7023 15.9042C22.9427 16.2025 23.1104 16.3408 23.2056 16.4026C23.2811 16.4517 23.3135 16.4556 23.3253 16.4576H23.3263C23.4116 16.4674 23.6883 16.4576 24.5007 16.0975C24.8549 15.9405 25.2414 15.7521 25.7143 15.5216L25.8271 15.4666C26.4055 15.1812 26.989 14.9065 27.5774 14.6425C28.0525 14.4339 28.5908 14.422 29.0747 14.6093C29.5585 14.7966 29.9485 15.168 30.1592 15.642C30.37 16.1161 30.3844 16.6544 30.1994 17.1391C30.0143 17.6238 29.6449 18.0155 29.1718 18.2285C28.6265 18.4732 28.0858 18.728 27.55 18.9928L27.4215 19.0555C26.9692 19.2763 26.5139 19.499 26.0871 19.6874C25.2041 20.0779 24.0758 20.5017 22.8524 20.3536C21.5612 20.1966 20.5664 19.4676 19.7472 18.4894L17.0658 23.6629L20.7744 28.488C20.9951 28.7764 21.1315 29.1198 21.1698 29.4809L21.9861 37.3259C22.0172 37.5844 21.9965 37.8464 21.9253 38.0968C21.8542 38.3473 21.7339 38.581 21.5714 38.7845C21.409 38.9879 21.2078 39.157 20.9793 39.2819C20.7509 39.4068 20.4999 39.485 20.241 39.512C19.9821 39.5389 19.7204 39.5141 19.4711 39.4389C19.2219 39.3637 18.9901 39.2397 18.7893 39.074C18.5885 38.9083 18.4226 38.7044 18.3014 38.474C18.1802 38.2436 18.106 37.9914 18.0832 37.7321L17.3238 30.4394L15.0712 27.5079L15.0515 27.5442L14.9691 27.3754L10.8072 21.9597C10.6027 21.6935 10.4698 21.3792 10.4213 21.047C10.3729 20.7148 10.4105 20.3757 10.5306 20.0622L13.1276 13.2778Z" fill="url(#paint0_linear_749_634)"/>
<path d="M10.1568 24.7812L8.71256 28.6665L3.02209 28.2152C2.76337 28.1911 2.50246 28.2187 2.25449 28.2963C2.00652 28.374 1.77644 28.5001 1.57759 28.6673C1.37874 28.8346 1.21509 29.0396 1.09614 29.2706C0.977182 29.5016 0.905288 29.754 0.88463 30.013C0.863972 30.272 0.894959 30.5325 0.975795 30.7794C1.05663 31.0264 1.18571 31.2548 1.35553 31.4515C1.52535 31.6481 1.73254 31.8091 1.96507 31.925C2.1976 32.041 2.45084 32.1096 2.71009 32.1269L9.88009 32.6959C10.3056 32.7298 10.7306 32.6239 11.0905 32.3945C11.4505 32.165 11.7258 31.8244 11.8747 31.4244L12.9784 28.4536L10.1568 24.7812Z" fill="url(#paint1_linear_749_634)"/>
<defs>
<linearGradient id="paint0_linear_749_634" x1="17.064" y1="-6.18997" x2="17.064" y2="48.7964" gradientUnits="userSpaceOnUse">
<stop stop-color="#FF3AC8"/>
<stop offset="1" stop-color="#F81212"/>
</linearGradient>
<linearGradient id="paint1_linear_749_634" x1="6.92843" y1="23.4832" x2="6.92843" y2="34.5724" gradientUnits="userSpaceOnUse">
<stop stop-color="#FF3AC8"/>
<stop offset="1" stop-color="#F81212"/>
</linearGradient>
</defs>
</svg>
